<svg width="20" height="20" viewBox="0 0 20 20" fill="none" xmlns="http://www.w3.org/2000/svg">
<path d="M13 14L12.8529 14.7354C13.1846 14.8018 13.5196 14.6379 13.6708 14.3354L13 14ZM6 7L5.66459 6.32918C5.36208 6.48043 5.19824 6.81544 5.26456 7.14709L6 7ZM6.35402 6.82299L6.68943 7.49381L6.68943 7.49381L6.35402 6.82299ZM7.31654 4.29136L8.0129 4.01281L8.0129 4.01281L7.31654 4.29136ZM6.50289 2.25722L5.80653 2.53576L5.80653 2.53576L6.50289 2.25722ZM17.7428 13.4971L18.0213 12.8008L18.0213 12.8008L17.7428 13.4971ZM15.7086 12.6835L15.9872 11.9871L15.9872 11.9871L15.7086 12.6835ZM13.177 13.646L13.8478 13.9814L13.8478 13.9814L13.177 13.646ZM18.25 15.3541V17H19.75V15.3541H18.25ZM3 1.75H4.64593V0.25H3V1.75ZM13 14C13.1471 13.2646 13.1473 13.2646 13.1475 13.2646C13.1476 13.2647 13.1477 13.2647 13.1479 13.2647C13.1481 13.2648 13.1483 13.2648 13.1484 13.2648C13.1487 13.2649 13.1488 13.2649 13.1488 13.2649C13.1488 13.2649 13.1482 13.2648 13.147 13.2645C13.1447 13.264 13.14 13.2631 13.1331 13.2615C13.1193 13.2585 13.0967 13.2533 13.0659 13.2459C13.0044 13.2309 12.9104 13.2066 12.7897 13.1711C12.5482 13.1 12.2016 12.9847 11.7954 12.8106C10.9796 12.461 9.94391 11.8833 9.03033 10.9697L7.96967 12.0303C9.05609 13.1167 10.2704 13.789 11.2046 14.1894C11.6734 14.3903 12.0768 14.525 12.3665 14.6101C12.5115 14.6528 12.6285 14.6832 12.7114 14.7034C12.7529 14.7135 12.7859 14.721 12.8097 14.7263C12.8217 14.7289 12.8313 14.7309 12.8385 14.7325C12.8421 14.7332 12.8451 14.7339 12.8475 14.7343C12.8487 14.7346 12.8498 14.7348 12.8507 14.735C12.8511 14.7351 12.8515 14.7352 12.8519 14.7352C12.8521 14.7353 12.8523 14.7353 12.8524 14.7353C12.8527 14.7354 12.8529 14.7354 13 14ZM9.03033 10.9697C8.11675 10.0561 7.53901 9.02042 7.18936 8.20456C7.01527 7.79836 6.89996 7.45184 6.8289 7.21025C6.79342 7.08962 6.76912 6.99565 6.75414 6.93406C6.74666 6.90329 6.74151 6.88065 6.73847 6.86687C6.73695 6.85999 6.73595 6.85532 6.73546 6.85296C6.73521 6.85178 6.73509 6.85118 6.73508 6.85117C6.73508 6.85116 6.73511 6.8513 6.73517 6.85159C6.7352 6.85174 6.73524 6.85192 6.73528 6.85214C6.7353 6.85225 6.73534 6.85244 6.73535 6.8525C6.73539 6.8527 6.73544 6.85291 6 7C5.26456 7.14709 5.26461 7.14732 5.26466 7.14756C5.26468 7.14765 5.26473 7.1479 5.26477 7.14809C5.26484 7.14846 5.26492 7.14887 5.26501 7.14932C5.2652 7.15022 5.26541 7.15127 5.26566 7.15247C5.26615 7.15488 5.26677 7.15789 5.26753 7.1615C5.26905 7.16873 5.27111 7.17834 5.27374 7.19026C5.279 7.21407 5.28655 7.2471 5.29664 7.28859C5.31682 7.37154 5.34721 7.48851 5.38985 7.6335C5.47504 7.92316 5.60973 8.32664 5.81064 8.79544C6.21099 9.72958 6.88325 10.9439 7.96967 12.0303L9.03033 10.9697ZM6.33541 7.67082L6.68943 7.49381L6.01861 6.15217L5.66459 6.32918L6.33541 7.67082ZM8.0129 4.01281L7.19925 1.97868L5.80653 2.53576L6.62019 4.5699L8.0129 4.01281ZM18.0213 12.8008L15.9872 11.9871L15.4301 13.3798L17.4642 14.1935L18.0213 12.8008ZM12.5062 13.3106L12.3292 13.6646L13.6708 14.3354L13.8478 13.9814L12.5062 13.3106ZM15.9872 11.9871C14.6592 11.4559 13.1458 12.0313 12.5062 13.3106L13.8478 13.9814C14.1386 13.3999 14.8265 13.1384 15.4301 13.3798L15.9872 11.9871ZM6.68943 7.49381C7.96868 6.85419 8.54408 5.34076 8.0129 4.01281L6.62019 4.5699C6.86163 5.17351 6.60008 5.86143 6.01861 6.15217L6.68943 7.49381ZM4.64593 1.75C5.15706 1.75 5.6167 2.06119 5.80653 2.53576L7.19925 1.97868C6.78162 0.934616 5.77042 0.25 4.64593 0.25V1.75ZM19.75 15.3541C19.75 14.2296 19.0654 13.2184 18.0213 12.8008L17.4642 14.1935C17.9388 14.3833 18.25 14.8429 18.25 15.3541H19.75ZM17 18.25C8.57766 18.25 1.75 11.4223 1.75 3H0.25C0.25 12.2508 7.74923 19.75 17 19.75V18.25ZM17 19.75C18.5188 19.75 19.75 18.5188 19.75 17H18.25C18.25 17.6904 17.6904 18.25 17 18.25V19.75ZM1.75 3C1.75 2.30964 2.30964 1.75 3 1.75V0.25C1.48122 0.25 0.25 1.48122 0.25 3H1.75Z" fill="white"/>
</svg>
