<svg width="33" height="33" viewBox="0 0 33 33" fill="none" xmlns="http://www.w3.org/2000/svg">
<g clip-path="url(#clip0_3_23)">
<path d="M0 3.78125C0 3.50775 0.108649 3.24544 0.302046 3.05205C0.495443 2.85865 0.757746 2.75 1.03125 2.75H4.125C4.35503 2.75006 4.57844 2.82704 4.7597 2.96868C4.94095 3.11032 5.06964 3.30849 5.12531 3.53169L5.96063 6.875H29.9063C30.0577 6.87514 30.2072 6.90862 30.3442 6.97307C30.4813 7.03752 30.6024 7.13136 30.6991 7.24791C30.7957 7.36446 30.8655 7.50087 30.9035 7.64744C30.9415 7.79402 30.9468 7.94716 30.9189 8.096L27.8252 24.596C27.781 24.8323 27.6555 25.0457 27.4706 25.1994C27.2857 25.3531 27.0529 25.4373 26.8125 25.4375H8.25C8.00958 25.4373 7.77679 25.3531 7.59188 25.1994C7.40697 25.0457 7.28155 24.8323 7.23731 24.596L4.14563 8.12694L3.32063 4.8125H1.03125C0.757746 4.8125 0.495443 4.70385 0.302046 4.51045C0.108649 4.31706 0 4.05475 0 3.78125ZM6.39788 8.9375L9.10594 23.375H25.9566L28.6646 8.9375H6.39788ZM10.3125 25.4375C9.21848 25.4375 8.16927 25.8721 7.39569 26.6457C6.6221 27.4193 6.1875 28.4685 6.1875 29.5625C6.1875 30.6565 6.6221 31.7057 7.39569 32.4793C8.16927 33.2529 9.21848 33.6875 10.3125 33.6875C11.4065 33.6875 12.4557 33.2529 13.2293 32.4793C14.0029 31.7057 14.4375 30.6565 14.4375 29.5625C14.4375 28.4685 14.0029 27.4193 13.2293 26.6457C12.4557 25.8721 11.4065 25.4375 10.3125 25.4375ZM24.75 25.4375C23.656 25.4375 22.6068 25.8721 21.8332 26.6457C21.0596 27.4193 20.625 28.4685 20.625 29.5625C20.625 30.6565 21.0596 31.7057 21.8332 32.4793C22.6068 33.2529 23.656 33.6875 24.75 33.6875C25.844 33.6875 26.8932 33.2529 27.6668 32.4793C28.4404 31.7057 28.875 30.6565 28.875 29.5625C28.875 28.4685 28.4404 27.4193 27.6668 26.6457C26.8932 25.8721 25.844 25.4375 24.75 25.4375ZM10.3125 27.5C10.8595 27.5 11.3841 27.7173 11.7709 28.1041C12.1577 28.4909 12.375 29.0155 12.375 29.5625C12.375 30.1095 12.1577 30.6341 11.7709 31.0209C11.3841 31.4077 10.8595 31.625 10.3125 31.625C9.76549 31.625 9.24089 31.4077 8.85409 31.0209C8.4673 30.6341 8.25 30.1095 8.25 29.5625C8.25 29.0155 8.4673 28.4909 8.85409 28.1041C9.24089 27.7173 9.76549 27.5 10.3125 27.5ZM24.75 27.5C25.297 27.5 25.8216 27.7173 26.2084 28.1041C26.5952 28.4909 26.8125 29.0155 26.8125 29.5625C26.8125 30.1095 26.5952 30.6341 26.2084 31.0209C25.8216 31.4077 25.297 31.625 24.75 31.625C24.203 31.625 23.6784 31.4077 23.2916 31.0209C22.9048 30.6341 22.6875 30.1095 22.6875 29.5625C22.6875 29.0155 22.9048 28.4909 23.2916 28.1041C23.6784 27.7173 24.203 27.5 24.75 27.5Z" fill="white"/>
</g>
<defs>
<clipPath id="clip0_3_23">
<rect width="33" height="33" fill="white"/>
</clipPath>
</defs>
</svg>
